<svg width="108" height="108" viewBox="0 0 108 108" xmlns="http://www.w3.org/2000/svg">
    <defs>
        <linearGradient id="macosGradient" x1="0" y1="0" x2="108" y2="108" gradientUnits="userSpaceOnUse">
            <stop offset="0" stop-color="#0D3356"/>
            <stop offset="1" stop-color="#7098C1"/>
        </linearGradient>

        <clipPath id="roundedMask">
            <rect x="0" y="0" width="108" height="108" rx="24" ry="24" />
        </clipPath>
    </defs>

    <g clip-path="url(#roundedMask)">
        <rect width="108" height="108" fill="url(#macosGradient)"/>

        <g stroke="#FFFFFF" stroke-width="0.3" stroke-opacity="0.1">
            <path d="M0,12h108 M0,24h108 M0,36h108 M0,48h108 M0,60h108 M0,72h108 M0,84h108 M0,96h108"/>
            <path d="M12,0v108 M24,0v108 M36,0v108 M48,0v108 M60,0v108 M72,0v108 M84,0v108 M96,0v108"/>
        </g>

        <circle cx="54" cy="54" r="40" fill="#FFFFFF" fill-opacity="0.05"/>

        <path fill="#FFFFFF" d="m 44.415618,62.664694 q -4.559196,5.212254 -7.93451,5.212254 -2.166245,0 -4.030225,-1.77324 v 1.423965 q 0,2.47179 0.705289,4.970446 0.806046,2.767329 0.806046,3.653948 0,1.235893 -0.73048,2.041913 Q 32.501259,79 31.418137,79 30.309823,79 29.654913,78.059645 29,77.11929 29,75.802798 q 0,-0.967225 0.654913,-3.49275 0.755666,-2.794198 0.755666,-5.427191 V 42.51424 h 4.156173 v 15.932292 q 0,2.418055 0.377832,3.546485 0.403024,1.128423 1.385391,1.85384 1.007558,0.698549 2.267003,0.698549 2.241814,0 5.81864,-3.277806 V 42.51424 h 4.18136 v 18.672758 q 0,2.364319 0.4534,3.277805 0.4534,0.88662 1.536524,0.88662 1.712848,0 2.216626,-3.573348 h 0.9068 q -0.478591,6.098873 -4.836271,6.098873 -1.88917,0 -3.148615,-1.343363 -1.234258,-1.370229 -1.309824,-3.868891 z M 78.093195,59.38689 H 79 q 0,4.245027 -1.30982,6.179472 -1.284637,1.934445 -3.224186,1.934445 -1.586901,0 -3.047856,-1.262763 -1.46096,-1.289627 -2.619648,-6.851154 L 66.632243,48.962387 59.125944,67.124662 h -4.760707 l 10.78086,-24.771624 q -0.856424,-4.809245 -2.065491,-7.11983 -1.209068,-2.310585 -2.997483,-2.310585 -1.435767,0 -2.518892,1.18216 -1.057933,1.155293 -1.183879,3.600215 H 55.47355 Q 55.54912,33.755507 56.959698,31.391187 58.370277,29 60.486144,29 q 1.360203,0 2.569274,1.209027 1.234255,1.18216 2.115867,4.083826 0.9068,2.8748 2.795971,11.955939 l 1.788412,8.516927 q 1.083122,5.292849 2.267001,7.092962 1.209069,1.773238 2.871539,1.773238 2.821157,0 3.198987,-4.245029 z"/>
    </g>
</svg>